<svg version="1.2" xmlns="http://www.w3.org/2000/svg" viewBox="0 0 210 170" width="210" height="170">
	<title>OKYJ1L1-ai</title>
	<style>
		.s0 { fill: #ffdc7b } 
		.s1 { fill: #ffffff } 
	</style>
	<g id="&lt;Group&gt;">
		<g id="&lt;Group&gt;">
			<path id="&lt;Path&gt;" class="s0" d="m94.7 75.1c0 14.3-11.7 26-26.1 26-14.3 0-26-11.7-26-26 0-14.4 11.7-26.1 26-26.1 14.4 0 26.1 11.7 26.1 26.1z"/>
			<g id="&lt;Group&gt;">
				<path id="&lt;Path&gt;" class="s0" d="m68.6 39.2c-1.7 0-3.1-1.4-3.1-3.2v-22.2c0-1.7 1.4-3.1 3.1-3.1 1.8 0 3.2 1.4 3.2 3.1v22.2c0 1.8-1.4 3.2-3.2 3.2z"/>
				<path id="&lt;Path&gt;" class="s0" d="m68.6 139.4c-1.7 0-3.1-1.4-3.1-3.1v-22.2c0-1.7 1.4-3.1 3.1-3.1 1.8 0 3.2 1.4 3.2 3.1v22.2c0 1.7-1.4 3.1-3.2 3.1z"/>
			</g>
			<g id="&lt;Group&gt;">
				<path id="&lt;Path&gt;" class="s0" d="m94 49.7c-1.2-1.2-1.2-3.2 0-4.4l15.7-15.7c1.2-1.2 3.2-1.2 4.4 0 1.3 1.2 1.3 3.2 0 4.4l-15.7 15.7c-1.2 1.2-3.2 1.2-4.4 0z"/>
				<path id="&lt;Path&gt;" class="s0" d="m23.1 120.6c-1.2-1.3-1.2-3.2 0-4.4l15.7-15.7c1.3-1.3 3.2-1.3 4.4 0 1.3 1.2 1.3 3.2 0 4.4l-15.6 15.7c-1.3 1.2-3.2 1.2-4.5 0z"/>
			</g>
			<g id="&lt;Group&gt;">
				<path id="&lt;Path&gt;" class="s0" d="m104.5 75.1c0-1.8 1.4-3.2 3.2-3.2h22.2c1.7 0 3.1 1.4 3.1 3.2 0 1.7-1.4 3.1-3.1 3.1h-22.2c-1.8 0-3.2-1.4-3.2-3.1z"/>
				<path id="&lt;Path&gt;" class="s0" d="m4.3 75.1c0-1.8 1.4-3.2 3.1-3.2h22.2c1.7 0 3.1 1.4 3.1 3.2 0 1.7-1.4 3.1-3.1 3.1h-22.2c-1.7 0-3.1-1.4-3.1-3.1z"/>
			</g>
			<g id="&lt;Group&gt;">
				<path id="&lt;Path&gt;" class="s0" d="m94 100.5c1.2-1.3 3.2-1.3 4.4 0l15.7 15.7c1.3 1.2 1.3 3.1 0 4.4-1.2 1.2-3.2 1.2-4.4 0l-15.7-15.7c-1.2-1.2-1.2-3.2 0-4.4z"/>
				<path id="&lt;Path&gt;" class="s0" d="m23.1 29.6c1.3-1.2 3.2-1.2 4.5 0l15.6 15.7c1.3 1.2 1.3 3.2 0 4.4-1.2 1.2-3.1 1.2-4.4 0l-15.7-15.7c-1.2-1.2-1.2-3.2 0-4.4z"/>
			</g>
		</g>
		<path id="&lt;Path&gt;" class="s1" d="m187.9 120.6q-0.1 0-0.3 0c1.6-3.6 2.4-7.5 2.4-11.6 0-16.3-13.1-29.4-29.3-29.4-5.7 0-11.1 1.7-15.6 4.5-6.1-14.8-20.7-25.3-37.7-25.3-22.6 0-40.9 18.3-40.9 40.8 0 1.7 0.2 3.4 0.4 5q-0.2 0-0.4 0c-15.1 0-27.3 12.3-27.3 27.4 0 15.1 12.2 27.4 27.3 27.4h121.4c10.7 0 19.4-8.7 19.4-19.4 0-10.8-8.7-19.4-19.4-19.4z"/>
	</g>
</svg>